<svg width="44" height="32" viewBox="0 0 44 32" fill="none" xmlns="http://www.w3.org/2000/svg">
<mask id="mask0_493_210" style="mask-type:alpha" maskUnits="userSpaceOnUse" x="0" y="0" width="44" height="32">
<rect width="44" height="31.9392" fill="#D9D9D9"/>
</mask>
<g mask="url(#mask0_493_210)">
<path d="M20.1668 14.6388L5.50016 7.98481V21.2928H23.8335V23.9544H5.50016C4.49183 23.9544 3.62864 23.6938 2.91058 23.1726C2.19252 22.6514 1.8335 22.0248 1.8335 21.2928V5.32321C1.8335 4.59127 2.19252 3.96468 2.91058 3.44345C3.62864 2.92222 4.49183 2.66161 5.50016 2.66161H34.8335C35.8418 2.66161 36.705 2.92222 37.4231 3.44345C38.1411 3.96468 38.5002 4.59127 38.5002 5.32321V11.9772H34.8335V7.98481L20.1668 14.6388ZM20.1668 11.9772L34.8335 5.32321H5.50016L20.1668 11.9772ZM34.8335 29.2776C32.8168 29.2776 31.0904 28.7564 29.6543 27.7139C28.2182 26.6715 27.5002 25.4183 27.5002 23.9544V17.9658C27.5002 17.0343 27.9432 16.2469 28.8293 15.6037C29.7154 14.9604 30.8002 14.6388 32.0835 14.6388C33.3668 14.6388 34.4515 14.9604 35.3377 15.6037C36.2238 16.2469 36.6668 17.0343 36.6668 17.9658V23.9544H33.0002V17.9658C33.0002 17.7884 32.9085 17.6331 32.7252 17.5C32.5418 17.367 32.3279 17.3004 32.0835 17.3004C31.8391 17.3004 31.6252 17.367 31.4418 17.5C31.2585 17.6331 31.1668 17.7884 31.1668 17.9658V23.9544C31.1668 24.6864 31.5259 25.313 32.2439 25.8342C32.962 26.3554 33.8252 26.616 34.8335 26.616C35.8418 26.616 36.705 26.3554 37.4231 25.8342C38.1411 25.313 38.5002 24.6864 38.5002 23.9544V18.6312H42.1668V23.9544C42.1668 25.4183 41.4488 26.6715 40.0127 27.7139C38.5765 28.7564 36.8502 29.2776 34.8335 29.2776ZM5.50016 7.98481V5.32321V21.2928V7.98481Z" fill="#1C1B1F"/>
</g>
</svg>
