<svg width="44" height="42" viewBox="0 0 44 42" fill="none" xmlns="http://www.w3.org/2000/svg">
<mask id="mask0_493_222" style="mask-type:alpha" maskUnits="userSpaceOnUse" x="0" y="0" width="44" height="42">
<rect y="0.302357" width="44" height="41.2223" fill="#D9D9D9"/>
</mask>
<g mask="url(#mask0_493_222)">
<path d="M21.9995 38.0895C18.7606 38.0895 16.1176 37.61 14.0703 36.651C12.0231 35.692 10.9995 34.4539 10.9995 32.9367C10.9995 31.9348 11.4426 31.0617 12.3287 30.3174C13.2148 29.5731 14.437 28.9862 15.9953 28.5568L17.0495 31.8203C16.5301 31.9634 16.0565 32.1423 15.6287 32.357C15.2009 32.5717 14.9106 32.7649 14.7578 32.9367C15.1551 33.3947 16.0717 33.7955 17.5078 34.139C18.944 34.4825 20.4412 34.6543 21.9995 34.6543C23.5578 34.6543 25.0627 34.4825 26.5141 34.139C27.9655 33.7955 28.8898 33.3947 29.287 32.9367C29.1342 32.7649 28.844 32.5717 28.4162 32.357C27.9884 32.1423 27.5148 31.9634 26.9953 31.8203L28.0495 28.5568C29.6078 28.9862 30.8224 29.5731 31.6933 30.3174C32.5641 31.0617 32.9995 31.9348 32.9995 32.9367C32.9995 34.4539 31.9759 35.692 29.9287 36.651C27.8815 37.61 25.2384 38.0895 21.9995 38.0895ZM21.9995 26.6245C22.5495 25.6798 23.1301 24.8139 23.7412 24.0267C24.3523 23.2394 24.9481 22.488 25.5287 21.7723C26.6592 20.3982 27.5606 19.1601 28.2328 18.058C28.9051 16.9559 29.2412 15.589 29.2412 13.9572C29.2412 12.0679 28.5384 10.4648 27.1328 9.14798C25.7273 7.83115 24.0162 7.17274 21.9995 7.17274C19.9828 7.17274 18.2717 7.83115 16.8662 9.14798C15.4606 10.4648 14.7578 12.0679 14.7578 13.9572C14.7578 15.589 15.094 16.9559 15.7662 18.058C16.4384 19.1601 17.3398 20.3982 18.4703 21.7723C19.0509 22.488 19.6467 23.2394 20.2578 24.0267C20.869 24.8139 21.4495 25.6798 21.9995 26.6245ZM21.9995 32.9367C21.6634 32.9367 21.3578 32.8437 21.0828 32.6576C20.8078 32.4715 20.6092 32.221 20.487 31.9061C19.7842 29.8736 18.8981 28.1704 17.8287 26.7963C16.7592 25.4222 15.7203 24.1054 14.712 22.8458C13.7342 21.5862 12.8863 20.2837 12.1683 18.9383C11.4502 17.5928 11.0912 15.9325 11.0912 13.9572C11.0912 11.0946 12.1453 8.67564 14.2537 6.7004C16.362 4.72517 18.944 3.73755 21.9995 3.73755C25.0551 3.73755 27.637 4.72517 29.7453 6.7004C31.8537 8.67564 32.9078 11.0946 32.9078 13.9572C32.9078 15.9325 32.5565 17.5928 31.8537 18.9383C31.1509 20.2837 30.2953 21.5862 29.287 22.8458C28.3092 24.1054 27.278 25.4222 26.1933 26.7963C25.1085 28.1704 24.2148 29.8736 23.512 31.9061C23.3898 32.221 23.1912 32.4715 22.9162 32.6576C22.6412 32.8437 22.3356 32.9367 21.9995 32.9367ZM21.9995 17.6071C23.069 17.6071 23.9856 17.2493 24.7495 16.5336C25.5134 15.818 25.8953 14.9592 25.8953 13.9572C25.8953 12.9553 25.5134 12.0965 24.7495 11.3809C23.9856 10.6652 23.069 10.3074 21.9995 10.3074C20.9301 10.3074 20.0134 10.6652 19.2495 11.3809C18.4856 12.0965 18.1037 12.9553 18.1037 13.9572C18.1037 14.9592 18.4856 15.818 19.2495 16.5336C20.0134 17.2493 20.9301 17.6071 21.9995 17.6071Z" fill="#1C1B1F"/>
</g>
</svg>
