<svg id="ICON" height="512" viewBox="0 0 32 32" width="512" xmlns="http://www.w3.org/2000/svg"><path d="m16 1c-8.271 0-15 6.729-15 15s6.729 15 15 15 15-6.729 15-15-6.729-15-15-15zm-13 15c0-1.033.122-2.037.351-3h4.817c-.103.974-.168 1.973-.168 3 0 1.034.065 2.031.167 3h-4.816c-.229-.963-.351-1.967-.351-3zm7 0c0-1.025.058-2.03.168-3h11.664c.11.97.168 1.975.168 3 0 1.05-.061 2.049-.166 3h-11.668c-.105-.951-.166-1.95-.166-3zm13.832-3h4.817c.229.963.351 1.967.351 3s-.122 2.037-.351 3h-4.816c.102-.969.167-1.966.167-3 0-1.027-.065-2.026-.168-3zm4.16-2h-4.441c-.519-2.828-1.468-5.293-2.741-7.067 3.238 1.296 5.835 3.856 7.182 7.067zm-13.856-7.308c.604-.455 1.348-.551 1.864-.551s1.26.096 1.864.551c1.686 1.27 2.994 3.973 3.657 7.308h-11.042c.663-3.334 1.97-6.038 3.657-7.308zm-2.946.241c-1.273 1.773-2.221 4.238-2.741 7.067h-4.441c1.347-3.21 3.944-5.771 7.182-7.067zm-7.182 17.067h4.441c.526 2.865 1.489 5.317 2.755 7.072-3.245-1.294-5.847-3.857-7.196-7.072zm11.992 8c-2.219 0-4.553-3.071-5.527-8h11.054c-.974 4.929-3.308 8-5.527 8zm4.797-.928c1.266-1.755 2.228-4.206 2.754-7.072h4.441c-1.349 3.214-3.951 5.778-7.195 7.072z"/></svg>